<?xml version="1.0" encoding="utf-8"?>
<!-- Generator: Adobe Illustrator 23.0.1, SVG Export Plug-In . SVG Version: 6.00 Build 0)  -->
<svg version="1.1"
	 id="Capa_1" image-rendering="optimizeQuality" text-rendering="geometricPrecision" shape-rendering="geometricPrecision" xmlns:xodm="http://www.corel.com/coreldraw/odm/2003"
	 xmlns="http://www.w3.org/2000/svg" xmlns:xlink="http://www.w3.org/1999/xlink" x="0px" y="0px" viewBox="0 0 221 89.6"
	 enable-background="new 0 0 221 89.6" xml:space="preserve">
<g id="Capa_x0020_1">
	<path fill-rule="evenodd" clip-rule="evenodd" fill="#E6E7E8" d="M152.9,63.9l-0.4,3.2c-0.9,0-1.9,0.1-2.8,0.1h0l0,0l-0.1,0
		c-10.1,0.4-20.2,1.3-29.9,2.5l-0.4,0.1c-26.7,3.4-51.6,9.8-73.7,18.5l-0.1,0l0.2-1.4h0L48,65.6l2.7-0.1l-1.6,15.6
		C82.4,71,117,65.9,151,64.7l0.3,0l0.1-0.9C151.4,63.8,152.9,63.9,152.9,63.9L152.9,63.9z"/>
	<path fill-rule="evenodd" clip-rule="evenodd" fill="#E6E7E8" d="M51.9,27.5l0.4-3.5c1,0,1.9-0.1,2.8-0.1h0l0,0l0.1,0
		c10.1-0.5,20.2-1.4,29.9-2.7l0.4-0.1c26.7-3.7,51.6-10.6,73.7-20l0.1,0l-0.1,1.5h0l-2.7,21.6l-2.7,0.1l2-15.4
		c-33.3,11-67.9,16.5-101.9,17.8l-0.3,0l-0.2,1L51.9,27.5L51.9,27.5z"/>
	<path fill="#E6E7E8" d="M4.5,49.6c-0.3,2.4,0,4.1,1.1,5.2s2.9,1.7,5.4,1.7c2.2,0,4.3-0.3,6.4-1.1c0.2,0.4,0.3,0.9,0.3,1.6
		c0,0.6,0,1.2,0,1.8c-1.1,0.4-2.2,0.7-3.5,0.9S11.6,60,10.1,60c-2.2,0-3.9-0.3-5.4-0.8c-1.4-0.6-2.6-1.3-3.4-2.3
		c-0.8-1-1.4-2.2-1.6-3.6c-0.2-1.4-0.2-2.9,0.1-4.5c0.3-1.6,0.8-3.1,1.4-4.5s1.6-2.6,2.7-3.6c1.1-1,2.4-1.8,3.9-2.4
		c1.5-0.6,3.2-0.9,5.1-0.9c1.6,0,3,0.3,4.2,0.8c1.1,0.5,2,1.2,2.7,2.1s1.1,2,1.4,3.2c0.2,1.2,0.2,2.6,0,4c-0.1,0.4-0.2,0.8-0.3,1.2
		c-0.1,0.4-0.2,0.8-0.3,1.1C20.6,49.7,4.5,49.7,4.5,49.6z M16.8,46.5c0.1-0.8,0.1-1.5,0-2.3c-0.1-0.7-0.3-1.3-0.7-1.9
		c-0.4-0.5-0.9-1-1.5-1.3c-0.6-0.3-1.4-0.5-2.4-0.5c-1.9,0-3.4,0.5-4.6,1.6c-1.2,1-2,2.5-2.6,4.3C5.1,46.5,16.8,46.5,16.8,46.5z
		 M25.2,37.8c0.4,0,0.7-0.1,1-0.1s0.7,0,1,0s0.6,0,0.9,0c0.3,0,0.6,0.1,0.9,0.1c0,0.4,0,1,0,1.7s-0.1,1.3-0.2,1.8
		c0.4-0.5,0.9-1,1.4-1.4c0.6-0.5,1.2-0.9,1.9-1.3c0.7-0.4,1.4-0.7,2.3-0.9c0.8-0.2,1.7-0.4,2.7-0.4c2.7,0,4.6,0.7,5.6,2.1
		c1,1.4,1.3,3.5,0.9,6.3l-2.3,13.8c-0.3,0.1-0.7,0.1-1.2,0.1s-0.8,0-1.2,0s-0.7,0-1.1,0s-0.8-0.1-1.1-0.1l2.1-12.6
		c0.3-2,0.3-3.5-0.3-4.4c-0.5-0.9-1.5-1.4-3-1.4c-0.9,0-1.7,0.1-2.5,0.4c-0.8,0.3-1.6,0.7-2.3,1.3c-0.7,0.6-1.3,1.4-1.8,2.3
		c-0.5,1-0.9,2.1-1.1,3.4l-1.9,11c-0.4,0.1-0.7,0.1-1.1,0.1s-0.8,0-1.1,0s-0.7,0-1.1,0c-0.4,0-0.8-0.1-1.1-0.1
		C21.6,59.5,25.2,37.8,25.2,37.8z M48.7,41.1h-3.6L45,40.5l9.3-8.1h0.4l-0.9,5.4h6c0,0.5,0,1-0.1,1.6c0,0.3-0.1,0.6-0.2,0.9
		c-0.1,0.3-0.2,0.6-0.3,0.8h-6L51.5,51c-0.2,1.2-0.3,2.1-0.3,2.8c0,0.7,0.1,1.3,0.3,1.6c0.2,0.4,0.5,0.6,0.9,0.8
		c0.4,0.1,1,0.2,1.7,0.2c0.5,0,1,0,1.5-0.1c0.5-0.1,0.9-0.2,1.3-0.2c0.1,0.6,0.2,1.1,0.1,1.7c0,0.6-0.1,1.1-0.2,1.6
		c-0.6,0.1-1.3,0.2-2,0.3c-0.7,0.1-1.4,0.1-2.2,0.1c-2.2,0-3.8-0.5-4.9-1.5c-1.1-1-1.4-2.6-1-4.9C46.6,53.4,48.7,41.1,48.7,41.1z
		 M61.3,37.8c0.3,0,0.7-0.1,1-0.1s0.6,0,1,0c0.3,0,0.7,0,1,0c0.3,0,0.6,0.1,0.9,0.1c0,0.4,0,1,0,1.7c0,0.7-0.1,1.3-0.2,1.8
		c0.8-1,1.8-1.8,3-2.5c1.2-0.7,2.6-1,4.3-1c0.2,0,0.5,0,0.8,0c0.3,0,0.5,0,0.7,0.1c0,0.3,0,0.5,0,0.8c0,0.3-0.1,0.6-0.1,0.9
		c-0.1,0.3-0.1,0.7-0.3,1.1c-0.1,0.4-0.2,0.7-0.3,1.1c-0.2-0.1-0.5-0.1-0.8-0.1c-0.3,0-0.5,0-0.6,0c-0.8,0-1.6,0.1-2.4,0.3
		c-0.8,0.2-1.5,0.6-2.2,1.1c-0.7,0.5-1.3,1.3-1.8,2.2c-0.5,0.9-0.9,2.1-1.1,3.6l-1.8,10.8c-0.3,0.1-0.7,0.1-1.2,0.1
		c-0.4,0-0.8,0-1.1,0s-0.7,0-1.1,0s-0.8-0.1-1.2-0.1L61.3,37.8L61.3,37.8z M85.5,49.3c-0.4-0.1-1-0.1-1.7-0.2C83.1,49,82.5,49,82,49
		c-1.9,0-3.4,0.3-4.5,1c-1.1,0.7-1.8,1.6-2,3c-0.2,0.8-0.1,1.5,0.2,2c0.3,0.5,0.6,0.8,1.1,1.1c0.5,0.3,1,0.4,1.6,0.5
		c0.6,0.1,1.2,0.1,1.7,0.1c0.7,0,1.4,0,2.2-0.1c0.8-0.1,1.4-0.2,2.1-0.3L85.5,49.3z M86.2,45.2c0.3-1.7,0-2.8-0.8-3.5
		c-0.8-0.7-2.1-1-3.8-1c-1.1,0-2.1,0.1-3.1,0.2c-1,0.2-1.9,0.4-2.8,0.6c-0.4-0.9-0.5-2-0.3-3.3c1.1-0.3,2.3-0.5,3.6-0.7
		c1.3-0.2,2.5-0.3,3.7-0.3c3.1,0,5.3,0.6,6.7,1.9c1.4,1.3,1.8,3.3,1.3,6.2l-2.3,13.6c-1.1,0.2-2.5,0.5-4,0.7
		c-1.6,0.2-3.2,0.4-4.8,0.4c-1.5,0-2.8-0.1-4-0.4c-1.2-0.3-2.1-0.7-2.9-1.2c-0.8-0.6-1.3-1.3-1.6-2.2c-0.3-0.9-0.4-1.9-0.2-3.2
		c0.2-1.2,0.7-2.3,1.3-3.2c0.7-0.9,1.6-1.7,2.6-2.3c1-0.6,2.2-1.1,3.4-1.3c1.3-0.3,2.5-0.4,3.9-0.4c1,0,1.8,0,2.4,0.1
		c0.6,0,1.1,0.1,1.6,0.1L86.2,45.2L86.2,45.2z M112,28.5c0.3-0.1,0.7-0.1,1.2-0.1c0.4,0,0.8,0,1.1,0c0.3,0,0.7,0,1.1,0
		c0.4,0,0.8,0.1,1.1,0.1l-5.2,30.4c-1.2,0.3-2.6,0.6-4.1,0.8s-3.1,0.3-4.9,0.3c-1.7,0-3.2-0.2-4.6-0.6s-2.6-1-3.6-1.9
		c-1-0.9-1.6-2-2.1-3.4S91.7,51.1,92,49c0.3-1.8,0.8-3.3,1.7-4.8c0.8-1.4,1.8-2.7,3-3.7c1.2-1,2.6-1.8,4.2-2.4
		c1.6-0.6,3.2-0.8,5-0.8c0.8,0,1.6,0.1,2.4,0.2c0.8,0.1,1.5,0.3,2.1,0.4C110.4,37.9,112,28.5,112,28.5z M109.8,41.4
		c-0.6-0.2-1.2-0.4-1.9-0.5c-0.7-0.1-1.4-0.2-2.3-0.2c-1.3,0-2.4,0.2-3.4,0.6c-1,0.4-1.8,1-2.6,1.7c-0.7,0.7-1.3,1.6-1.8,2.6
		c-0.5,1-0.8,2.1-1,3.3c-0.4,2.7-0.1,4.6,1.1,5.8c1.2,1.2,2.9,1.7,5.2,1.7c0.8,0,1.5,0,2.2-0.1s1.3-0.2,1.8-0.3
		C107.3,56.1,109.8,41.5,109.8,41.4z M129.3,49.3c-0.4-0.1-1-0.1-1.7-0.2c-0.7-0.1-1.3-0.1-1.8-0.1c-1.9,0-3.4,0.3-4.5,1
		c-1.1,0.7-1.8,1.6-2,3c-0.2,0.8-0.1,1.5,0.2,2c0.3,0.5,0.6,0.8,1.1,1.1c0.5,0.3,1,0.4,1.6,0.5c0.6,0.1,1.2,0.1,1.7,0.1
		c0.7,0,1.4,0,2.2-0.1c0.8-0.1,1.4-0.2,2.1-0.3L129.3,49.3z M130,45.2c0.3-1.7,0-2.8-0.8-3.5s-2.1-1-3.8-1c-1.1,0-2.1,0.1-3.1,0.2
		c-1,0.2-1.9,0.4-2.8,0.6c-0.4-0.9-0.5-2-0.3-3.3c1.1-0.3,2.3-0.5,3.6-0.7c1.3-0.2,2.5-0.3,3.7-0.3c3.1,0,5.3,0.6,6.7,1.9
		c1.4,1.3,1.8,3.3,1.4,6.2l-2.3,13.6c-1.1,0.2-2.5,0.5-4,0.7c-1.6,0.2-3.2,0.4-4.8,0.4c-1.5,0-2.8-0.1-4-0.4
		c-1.2-0.3-2.1-0.7-2.9-1.2c-0.8-0.6-1.3-1.3-1.6-2.2c-0.3-0.9-0.4-1.9-0.2-3.2c0.2-1.2,0.7-2.3,1.3-3.2c0.7-0.9,1.6-1.7,2.6-2.3
		c1-0.6,2.2-1.1,3.4-1.3c1.3-0.3,2.5-0.4,3.9-0.4c1,0,1.8,0,2.4,0.1c0.6,0,1.1,0.1,1.6,0.1C129.8,46,130,45.2,130,45.2z"/>
	<path fill="#06B9E6" d="M142.8,29c0.8-0.1,1.6-0.1,2.4-0.1c0.8,0,1.6,0,2.3,0.1l-2.9,17.3c-0.3,1.8-0.4,3.3-0.4,4.5
		c0,1.2,0.3,2.3,0.7,3c0.4,0.8,1.1,1.3,1.9,1.7c0.9,0.4,1.9,0.6,3.3,0.6s2.5-0.2,3.4-0.6c0.9-0.4,1.8-0.9,2.4-1.7
		c0.7-0.8,1.3-1.8,1.7-3c0.5-1.2,0.8-2.7,1.1-4.5l2.9-17.3c0.8-0.1,1.6-0.1,2.4-0.1c0.9,0,1.7,0,2.4,0.1l-3.1,18
		c-0.3,2-0.9,3.8-1.6,5.5c-0.7,1.6-1.6,3-2.7,4.1c-1.1,1.1-2.5,1.9-4.1,2.5c-1.6,0.6-3.5,0.9-5.6,0.9c-2.1,0-3.9-0.3-5.3-0.9
		c-1.4-0.6-2.5-1.4-3.2-2.5c-0.8-1.1-1.2-2.4-1.3-4.1c-0.1-1.6,0-3.4,0.3-5.5L142.8,29L142.8,29z M168.9,37.8c0.3,0,0.7-0.1,1-0.1
		s0.7,0,1,0s0.6,0,0.9,0c0.3,0,0.6,0.1,0.9,0.1c0,0.4,0,1,0,1.7s-0.1,1.3-0.2,1.8c0.4-0.5,0.9-1,1.4-1.4c0.6-0.5,1.2-0.9,1.9-1.3
		c0.7-0.4,1.4-0.7,2.3-0.9c0.8-0.2,1.7-0.4,2.7-0.4c2.7,0,4.6,0.7,5.6,2.1c1.1,1.4,1.3,3.5,0.9,6.3L185,59.5
		c-0.4,0.1-0.7,0.1-1.2,0.1c-0.4,0-0.8,0-1.2,0s-0.7,0-1.1,0c-0.4,0-0.8-0.1-1.1-0.1l2.1-12.6c0.3-2,0.3-3.5-0.3-4.4
		c-0.5-0.9-1.5-1.4-3-1.4c-0.9,0-1.7,0.1-2.5,0.4c-0.8,0.3-1.6,0.7-2.3,1.3c-0.7,0.6-1.3,1.4-1.8,2.3c-0.5,1-0.9,2.1-1.1,3.4
		l-1.9,11c-0.4,0.1-0.7,0.1-1.1,0.1s-0.8,0-1.1,0s-0.7,0-1.1,0c-0.4,0-0.8-0.1-1.1-0.1L168.9,37.8L168.9,37.8z M197.8,60
		c-1.8,0-3.4-0.3-4.7-0.9c-1.3-0.6-2.3-1.4-3.1-2.4s-1.2-2.2-1.4-3.6c-0.2-1.4-0.2-2.9,0.1-4.5c0.3-1.6,0.8-3.1,1.4-4.5
		c0.7-1.4,1.6-2.6,2.7-3.6c1.1-1,2.4-1.8,3.9-2.4c1.5-0.6,3.1-0.9,5-0.9c1.8,0,3.4,0.3,4.7,0.9c1.3,0.6,2.3,1.4,3.1,2.4
		c0.8,1,1.2,2.2,1.4,3.6c0.2,1.4,0.2,2.9-0.1,4.5c-0.3,1.6-0.8,3.1-1.4,4.5c-0.7,1.4-1.6,2.6-2.7,3.6c-1.1,1-2.4,1.8-3.9,2.4
		S199.7,60,197.8,60z M198.4,56.6c2.1,0,3.8-0.7,5.1-2.1s2.1-3.4,2.5-5.9c0.4-2.5,0.3-4.5-0.5-5.9c-0.8-1.4-2.2-2.1-4.4-2.1
		c-2.1,0-3.8,0.7-5,2.1c-1.2,1.4-2.1,3.3-2.5,5.9c-0.4,2.5-0.3,4.5,0.5,5.9C194.8,55.9,196.3,56.6,198.4,56.6z"/>
</g>
<g id="Capa_x0020_1_0">
	<circle fill="none" stroke="#E6E7E8" stroke-width="0.9" stroke-miterlimit="22.9256" cx="214.6" cy="31.2" r="5.3"/>
	<path fill="#E6E7E8" d="M212.9,33.7h0.8v-2.3h0.9l1.3,2.3h0.9l-1.4-2.5v0c0.6-0.2,1-0.7,1-1.4c0-1.1-0.6-1.6-1.9-1.6h-1.7V33.7
		C212.9,33.7,212.9,33.7,212.9,33.7z M213.8,30.8v-1.9h0.8c0.8,0,1.1,0.3,1.1,0.9s-0.3,1-1.1,1H213.8L213.8,30.8z"/>
</g>
</svg>
